<svg xmlns="http://www.w3.org/2000/svg" width="20.676" height="20.679" viewBox="0 0 20.676 20.679">
  <g id="Analysis-report-document-develop-infromation" transform="translate(-2.009 -2)">
    <path id="Path_65" data-name="Path 65" d="M22.585,5.891,18.794,2.1a.356.356,0,0,0-.245-.1H9.933A1.037,1.037,0,0,0,8.9,3.034V5.119a7.228,7.228,0,0,0,0,14.441v2.085a1.037,1.037,0,0,0,1.034,1.034H21.651a1.037,1.037,0,0,0,1.034-1.034V6.136a.356.356,0,0,0-.1-.245ZM18.893,3.175l2.616,2.616H19.238a.345.345,0,0,1-.345-.345ZM2.7,12.339A6.556,6.556,0,0,1,8.9,5.8v6.4L4.384,16.713A6.507,6.507,0,0,1,2.7,12.339ZM4.87,17.2l4.515-4.515h6.4A6.536,6.536,0,0,1,4.87,17.2ZM22,21.645a.345.345,0,0,1-.345.345H9.933a.345.345,0,0,1-.345-.345V19.56a7.242,7.242,0,0,0,6.893-7.22.345.345,0,0,0-.345-.345H9.588V3.034a.345.345,0,0,1,.345-.345H18.2V5.446A1.037,1.037,0,0,0,19.238,6.48H22Z" fill="#27aae2"/>
    <path id="Path_66" data-name="Path 66" d="M26.345,7A.345.345,0,0,0,26,7.345v6.893a.345.345,0,0,0,.345.345h6.893a.345.345,0,0,0,.345-.345A7.245,7.245,0,0,0,26.345,7Zm.345,6.893V7.7a6.554,6.554,0,0,1,6.193,6.193Z" transform="translate(-15.723 -3.277)" fill="#27aae2"/>
    <path id="Path_67" data-name="Path 67" d="M43.1,40a3.1,3.1,0,1,0,3.1,3.1A3.1,3.1,0,0,0,43.1,40Zm0,5.514A2.413,2.413,0,1,1,45.514,43.1,2.413,2.413,0,0,1,43.1,45.514Z" transform="translate(-24.898 -24.903)" fill="#27aae2"/>
    <path id="Path_68" data-name="Path 68" d="M44.571,47.117l-.79-.79-.487.487,1.034,1.034a.345.345,0,0,0,.487,0l2.068-2.068-.487-.487Z" transform="translate(-27.056 -28.372)" fill="#27aae2"/>
    <path id="Path_69" data-name="Path 69" d="M50,19h2.757v.689H50Z" transform="translate(-31.451 -11.141)" fill="#27aae2"/>
    <path id="Path_70" data-name="Path 70" d="M50,25h2.757v.689H50Z" transform="translate(-31.451 -15.073)" fill="#27aae2"/>
    <path id="Path_71" data-name="Path 71" d="M50,31h2.757v.689H50Z" transform="translate(-31.451 -19.005)" fill="#27aae2"/>
  </g>
</svg>
