<svg id="_857779" data-name="857779" xmlns="http://www.w3.org/2000/svg" width="21.68" height="21.68" viewBox="0 0 21.68 21.68">
  <g id="Group_7" data-name="Group 7" transform="translate(3.613)">
    <g id="Group_6" data-name="Group 6">
      <path id="Path_57" data-name="Path 57" d="M1.356,0H16.712a1.355,1.355,0,0,1,1.355,1.355v10.84a1.355,1.355,0,0,1-1.355,1.355H10.841v-.9h5.872a.452.452,0,0,0,.452-.452V1.355A.452.452,0,0,0,16.712.9H1.356A.452.452,0,0,0,.9,1.355v8.13H0V1.355A1.355,1.355,0,0,1,1.356,0Z" transform="translate(-0.001)" fill="#27aae2"/>
    </g>
  </g>
  <g id="Group_9" data-name="Group 9" transform="translate(15.356 13.098)">
    <g id="Group_8" data-name="Group 8" transform="translate(0)">
      <rect id="Rectangle_44" data-name="Rectangle 44" width="0.903" height="2.71" fill="#27aae2"/>
    </g>
  </g>
  <g id="Group_11" data-name="Group 11" transform="translate(17.615 9.485)">
    <g id="Group_10" data-name="Group 10" transform="translate(0)">
      <path id="Path_58" data-name="Path 58" d="M43.571,225.355a.452.452,0,0,0,.452-.452V224h.9v.9a1.355,1.355,0,0,1-1.355,1.355h-.9v-.9Z" transform="translate(-42.668 -224)" fill="#27aae2"/>
    </g>
  </g>
  <g id="Group_13" data-name="Group 13" transform="translate(18.97 7.678)">
    <g id="Group_12" data-name="Group 12" transform="translate(0)">
      <rect id="Rectangle_45" data-name="Rectangle 45" width="0.903" height="0.903" fill="#27aae2"/>
    </g>
  </g>
  <g id="Group_15" data-name="Group 15" transform="translate(3.736 8.129)">
    <g id="Group_14" data-name="Group 14">
      <path id="Path_59" data-name="Path 59" d="M193.423,193.427a4.907,4.907,0,1,1,0,6.94A4.907,4.907,0,0,1,193.423,193.427ZM196.9,200.9a4,4,0,1,0-4.005-4A4,4,0,0,0,196.9,200.9Z" transform="translate(-191.986 -191.989)" fill="#27aae2"/>
    </g>
  </g>
  <g id="Group_17" data-name="Group 17" transform="translate(0 16.681)">
    <g id="Group_16" data-name="Group 16">
      <path id="Path_60" data-name="Path 60" d="M394.088,396.909l2.835-2.834a.451.451,0,0,1,.639,0l1.26,1.26a.452.452,0,0,1,0,.639l-2.835,2.836a.452.452,0,0,1-.319.132h0a.452.452,0,0,1-.319-.134l-1.26-1.26A.452.452,0,0,1,394.088,396.909Zm1.579.942,2.2-2.2-.621-.621-2.2,2.2Z" transform="translate(-393.956 -393.942)" fill="#27aae2"/>
    </g>
  </g>
  <g id="Group_19" data-name="Group 19" transform="translate(3.598 15.868)">
    <g id="Group_18" data-name="Group 18" transform="translate(0 0)">
      <rect id="Rectangle_46" data-name="Rectangle 46" width="0.903" height="2.228" transform="translate(0.639 2.214) rotate(-135)" fill="#27aae2"/>
    </g>
  </g>
  <g id="Group_21" data-name="Group 21" transform="translate(5.42 9.937)">
    <g id="Group_20" data-name="Group 20" transform="translate(0)">
      <path id="Path_61" data-name="Path 61" d="M312.5,234.667v.9a2.261,2.261,0,0,0-2.258,2.258h-.9A3.165,3.165,0,0,1,312.5,234.667Z" transform="translate(-309.334 -234.667)" fill="#27aae2"/>
    </g>
  </g>
  <g id="Group_23" data-name="Group 23" transform="translate(13.55 15.357)">
    <g id="Group_22" data-name="Group 22">
      <rect id="Rectangle_47" data-name="Rectangle 47" width="3.613" height="0.903" fill="#27aae2"/>
    </g>
  </g>
  <g id="Group_25" data-name="Group 25" transform="translate(13.55 1.807)">
    <g id="Group_24" data-name="Group 24" transform="translate(0)">
      <path id="Path_62" data-name="Path 62" d="M129.356,42.667A1.355,1.355,0,1,1,128,44.022,1.355,1.355,0,0,1,129.356,42.667Zm0,1.807a.452.452,0,1,0-.452-.452A.452.452,0,0,0,129.356,44.474Z" transform="translate(-128.001 -42.667)" fill="#27aae2"/>
    </g>
  </g>
  <g id="Group_27" data-name="Group 27" transform="translate(10.388 4.968)">
    <g id="Group_26" data-name="Group 26" transform="translate(0)">
      <path id="Path_63" data-name="Path 63" d="M204.023,117.333a1.355,1.355,0,1,1-1.355,1.355A1.355,1.355,0,0,1,204.023,117.333Zm0,1.807a.452.452,0,1,0-.452-.452A.452.452,0,0,0,204.023,119.14Z" transform="translate(-202.668 -117.333)" fill="#27aae2"/>
    </g>
  </g>
  <g id="Group_29" data-name="Group 29" transform="translate(15.037 3.294)">
    <g id="Group_28" data-name="Group 28" transform="translate(0 0)">
      <rect id="Rectangle_48" data-name="Rectangle 48" width="3.194" height="0.903" transform="translate(2.258 2.897) rotate(-135)" fill="#27aae2"/>
    </g>
  </g>
  <g id="Group_31" data-name="Group 31" transform="translate(11.877 3.295)">
    <g id="Group_30" data-name="Group 30" transform="translate(0 0)">
      <rect id="Rectangle_49" data-name="Rectangle 49" width="0.903" height="3.194" transform="translate(0.639 2.897) rotate(-135)" fill="#27aae2"/>
    </g>
  </g>
  <g id="Group_33" data-name="Group 33" transform="translate(7.227 1.807)">
    <g id="Group_32" data-name="Group 32" transform="translate(0)">
      <path id="Path_64" data-name="Path 64" d="M278.689,42.667a1.355,1.355,0,1,1-1.355,1.355A1.355,1.355,0,0,1,278.689,42.667Zm0,1.807a.452.452,0,1,0-.452-.452A.452.452,0,0,0,278.689,44.474Z" transform="translate(-277.334 -42.667)" fill="#27aae2"/>
    </g>
  </g>
  <g id="Group_35" data-name="Group 35" transform="translate(8.714 3.296)">
    <g id="Group_34" data-name="Group 34" transform="translate(0 0)">
      <rect id="Rectangle_50" data-name="Rectangle 50" width="3.194" height="0.903" transform="translate(2.258 2.897) rotate(-135)" fill="#27aae2"/>
    </g>
  </g>
</svg>
