<svg xmlns="http://www.w3.org/2000/svg" width="21.001" height="21" viewBox="0 0 21.001 21">
  <g id="Distributed" transform="translate(-1 -1.004)">
    <path id="Path_72" data-name="Path 72" d="M29,52.016A1.016,1.016,0,1,0,30.016,51,1.016,1.016,0,0,0,29,52.016Zm1.355,0a.339.339,0,1,1-.339-.339A.339.339,0,0,1,30.355,52.016Z" transform="translate(-18.516 -33.061)" fill="#27aae2"/>
    <path id="Path_73" data-name="Path 73" d="M7,52.016A1.016,1.016,0,1,0,8.016,51,1.016,1.016,0,0,0,7,52.016Zm1.355,0a.339.339,0,1,1-.339-.339A.339.339,0,0,1,8.355,52.016Z" transform="translate(-3.968 -33.061)" fill="#27aae2"/>
    <path id="Path_74" data-name="Path 74" d="M21.663,15.907H19.291V14.213h.339a.339.339,0,0,0,.339-.339V12.519a.339.339,0,0,0-.339-.339H18.275a.339.339,0,0,0-.339.339v.339h-5.42v-.339a.339.339,0,0,0-.339-.339h-.339V10.06L16,8.779a.339.339,0,0,0,.239-.324V3.035a.339.339,0,0,0-.138-.271.6.6,0,0,0-.08-.044l-4.4-1.694a.342.342,0,0,0-.243,0L6.976,2.72a.6.6,0,0,0-.08.044.339.339,0,0,0-.138.271v5.42A.339.339,0,0,0,7,8.779l4.164,1.281v2.121h-.339a.339.339,0,0,0-.339.339v.339H5.065v-.339a.339.339,0,0,0-.339-.339H3.371a.339.339,0,0,0-.339.339v1.355a.339.339,0,0,0,.339.339H3.71v1.694H1.339A.339.339,0,0,0,1,16.246v5.42A.339.339,0,0,0,1.339,22h5.42a.339.339,0,0,0,.339-.339v-5.42a.339.339,0,0,0-.339-.339H4.387V14.213h.339a.339.339,0,0,0,.339-.339v-.339h5.42v.339a.339.339,0,0,0,.339.339h.339v1.694H8.791a.339.339,0,0,0-.339.339v5.42A.339.339,0,0,0,8.791,22h5.42a.339.339,0,0,0,.339-.339v-5.42a.339.339,0,0,0-.339-.339H11.839V14.213h.339a.339.339,0,0,0,.339-.339v-.339h5.42v.339a.339.339,0,0,0,.339.339h.339v1.694H16.243a.339.339,0,0,0-.339.339v5.42a.339.339,0,0,0,.339.339h5.42A.339.339,0,0,0,22,21.665v-5.42A.339.339,0,0,0,21.663,15.907Zm-6.1-7.7L11.839,9.351V4.64l3.726-1.147ZM11.5,1.7,14.868,3,11.5,4.036,8.133,3ZM7.436,3.494,11.162,4.64V9.351L7.436,8.2ZM6.42,21.327H1.677V16.584H6.42ZM4.387,13.536H3.71v-.677h.677Zm9.484,7.791H9.13V16.584h4.742Zm-2.032-7.791h-.677v-.677h.677Zm6.775-.677h.677v.677h-.677Zm2.71,8.468H16.582V16.584h4.742Z" fill="#27aae2"/>
    <path id="Path_75" data-name="Path 75" d="M51,52.016A1.016,1.016,0,1,0,52.016,51,1.016,1.016,0,0,0,51,52.016Zm1.355,0a.339.339,0,1,1-.339-.339A.339.339,0,0,1,52.355,52.016Z" transform="translate(-33.063 -33.061)" fill="#27aae2"/>
    <path id="Path_76" data-name="Path 76" d="M50.371,58H48.339a.339.339,0,1,0,0,.677h2.032a.339.339,0,1,0,0-.677Z" transform="translate(-31.08 -37.69)" fill="#27aae2"/>
    <path id="Path_77" data-name="Path 77" d="M57.339,58.677h.339a.339.339,0,1,0,0-.677h-.339a.339.339,0,1,0,0,.677Z" transform="translate(-37.031 -37.69)" fill="#27aae2"/>
  </g>
</svg>
