<svg xmlns="http://www.w3.org/2000/svg" width="20.9" height="17.905" viewBox="0 0 20.9 17.905">
  <g id="_714503" data-name="714503" transform="translate(0 54.593) rotate(-90)">
    <g id="Group_37" data-name="Group 37" transform="translate(36.688)">
      <g id="Group_36" data-name="Group 36">
        <path id="Path_78" data-name="Path 78" d="M329.913,384.844l-1.5,1.5V384h-1.306v2.342l-1.5-1.5-.924.924,3.074,3.074,3.074-3.074Z" transform="translate(-312.932 -368.325)" fill="#27aae2"/>
        <path id="Path_79" data-name="Path 79" d="M261.225,6.531V9.144h1.306V6.531A6.538,6.538,0,0,0,256,0V1.306A5.231,5.231,0,0,1,261.225,6.531Z" transform="translate(-247.048)" fill="#27aae2"/>
        <path id="Path_80" data-name="Path 80" d="M97.306,290.613V288H96v2.613a6.538,6.538,0,0,0,6.531,6.531v-1.306A5.231,5.231,0,0,1,97.306,290.613Z" transform="translate(-93.579 -276.244)" fill="#27aae2"/>
        <rect id="Rectangle_51" data-name="Rectangle 51" width="1.306" height="1.306" transform="translate(2.421 9.144)" fill="#27aae2"/>
        <rect id="Rectangle_52" data-name="Rectangle 52" width="1.306" height="1.306" transform="translate(2.421 6.531)" fill="#27aae2"/>
        <path id="Path_81" data-name="Path 81" d="M39.109,14.218h1.306V11.876l1.5,1.5.924-.924L39.762,9.376,36.688,12.45l.924.924,1.5-1.5Z" transform="translate(-36.688 -8.993)" fill="#27aae2"/>
        <rect id="Rectangle_53" data-name="Rectangle 53" width="1.306" height="1.306" transform="translate(14.177 10.45)" fill="#27aae2"/>
        <rect id="Rectangle_54" data-name="Rectangle 54" width="1.306" height="1.306" transform="translate(14.177 13.063)" fill="#27aae2"/>
      </g>
    </g>
  </g>
</svg>
