<svg xmlns="http://www.w3.org/2000/svg" width="24.787" height="24.787" viewBox="0 0 24.787 24.787">
  <g id="_2640650" data-name="2640650" transform="translate(-1 -1)">
    <path id="Path_44" data-name="Path 44" d="M50.2,9a.4.4,0,0,1-.4-.4H49a1.2,1.2,0,0,0,.8,1.126V10.6h.8V9.724A1.2,1.2,0,0,0,50.2,7.4a.4.4,0,1,1,.4-.4h.8a1.2,1.2,0,0,0-.8-1.126V5h-.8v.873A1.2,1.2,0,0,0,50.2,8.2a.4.4,0,1,1,0,.8Z" transform="translate(-28.81 -2.401)" fill="#27aae2"/>
    <path id="Path_45" data-name="Path 45" d="M25.787,5.4a4.4,4.4,0,1,0-8.8,0c0,.081.008.161.012.241A8.39,8.39,0,0,0,5.4,13.394a8.34,8.34,0,0,0,1.721,5.072L5.286,20.622a2.811,2.811,0,1,0,.608.518L7.64,19.086a8.367,8.367,0,0,0,9.784,1.877,2.847,2.847,0,0,0,.367.027,2.8,2.8,0,0,0,2.792-2.664,8.373,8.373,0,0,0,.792-8.531h.014a4.4,4.4,0,0,0,4.4-4.4ZM3.8,24.988a2,2,0,1,1,2-2A2,2,0,0,1,3.8,24.988ZM21.389,1.8a3.6,3.6,0,1,1-3.6,3.6A3.6,3.6,0,0,1,21.389,1.8Zm-7.6,19.19c-.628,0-1.471-1.081-1.989-3.477a2.816,2.816,0,0,0,1.156-1.031l2.14.951a2.758,2.758,0,0,0,.136,1.893c-.429,1.041-.962,1.663-1.442,1.663Zm-5.2-6a2,2,0,1,1,2,2A2,2,0,0,1,8.6,14.993Zm5.2-9.2c.706,0,1.461,1.208,1.932,3.2H11.87C12.346,7,13.1,5.8,13.793,5.8Zm2.1,4a20.161,20.161,0,0,1,.3,3.2H12.55a2.8,2.8,0,0,0-1.127-.674A19.414,19.414,0,0,1,11.7,9.8Zm1.1,3.2a21.383,21.383,0,0,0-.293-3.2h3.043l-.9,3.2Zm-6.359-.8-.034,0a2.787,2.787,0,0,0-1.955.8H6.218a7.543,7.543,0,0,1,.888-3.2h3.788A20.208,20.208,0,0,0,10.629,12.2Zm4.8,4.506-2.14-.951a2.75,2.75,0,0,0-.166-1.958h3.06a21.218,21.218,0,0,1-.15,2.226A2.819,2.819,0,0,0,15.426,16.7Zm1.56-2.909h1.628l-.457,1.626a2.685,2.685,0,0,0-1.265.125C16.945,14.974,16.975,14.388,16.985,13.793Zm2.458,0h1.93a7.509,7.509,0,0,1-.985,3.361,2.812,2.812,0,0,0-1.463-1.52Zm.225-.8.87-3.092a7.584,7.584,0,0,1,.838,3.092Zm-.8-4H16.538a8.536,8.536,0,0,0-1.2-3.036,7.562,7.562,0,0,1,1.817.625A4.412,4.412,0,0,0,18.869,9Zm-6.6-3.044A8.582,8.582,0,0,0,11.056,9H7.612A7.6,7.6,0,0,1,12.267,5.952ZM6.218,13.793H8.07A2.775,2.775,0,0,0,8.5,16.841l-.85,1A7.54,7.54,0,0,1,6.218,13.793Zm1.944,4.679.946-1.113a2.724,2.724,0,0,0,1.931.393,8.443,8.443,0,0,0,1.211,3.079A7.588,7.588,0,0,1,8.161,18.473Zm7.171,2.359a5.137,5.137,0,0,0,.427-.722,2.81,2.81,0,0,0,.552.453A7.442,7.442,0,0,1,15.332,20.832Zm2.459-.642a2,2,0,1,1,2-2A2,2,0,0,1,17.791,20.19Z" transform="translate(0 0)" fill="#27aae2"/>
    <path id="Path_46" data-name="Path 46" d="M6.2,53a1.2,1.2,0,1,0,1.2,1.2A1.2,1.2,0,0,0,6.2,53Zm0,1.6a.4.4,0,1,1,.4-.4A.4.4,0,0,1,6.2,54.6Z" transform="translate(-2.401 -31.211)" fill="#27aae2"/>
    <path id="Path_47" data-name="Path 47" d="M24.4,34.2a1.2,1.2,0,1,0-1.2,1.2A1.2,1.2,0,0,0,24.4,34.2Zm-1.6,0a.4.4,0,1,1,.4.4A.4.4,0,0,1,22.8,34.2Z" transform="translate(-12.604 -19.207)" fill="#27aae2"/>
    <path id="Path_48" data-name="Path 48" d="M41.2,41a1.2,1.2,0,1,0,1.2,1.2A1.2,1.2,0,0,0,41.2,41Zm0,1.6a.4.4,0,1,1,.4-.4A.4.4,0,0,1,41.2,42.6Z" transform="translate(-23.408 -24.008)" fill="#27aae2"/>
    <path id="Path_49" data-name="Path 49" d="M5,5h5.6v.8H5Z" transform="translate(-2.401 -2.401)" fill="#27aae2"/>
    <path id="Path_50" data-name="Path 50" d="M5,9h5.6v.8H5Z" transform="translate(-2.401 -4.802)" fill="#27aae2"/>
    <path id="Path_51" data-name="Path 51" d="M5,13h.8v.8H5Z" transform="translate(-2.401 -7.202)" fill="#27aae2"/>
    <path id="Path_52" data-name="Path 52" d="M13,13h.8v.8H13Z" transform="translate(-7.202 -7.202)" fill="#27aae2"/>
    <path id="Path_53" data-name="Path 53" d="M9,13h.8v.8H9Z" transform="translate(-4.802 -7.202)" fill="#27aae2"/>
    <path id="Path_54" data-name="Path 54" d="M17,13h.8v.8H17Z" transform="translate(-9.603 -7.202)" fill="#27aae2"/>
  </g>
</svg>
